<?xml version="1.0" encoding="UTF-8"?>
<svg width="239px" height="100px" viewBox="0 0 239 100" version="1.1" xmlns="http://www.w3.org/2000/svg" xmlns:xlink="http://www.w3.org/1999/xlink">
    <!-- Generator: Sketch 42 (36781) - http://www.bohemiancoding.com/sketch -->
    <title>fb-ig</title>
    <desc>Created with Sketch.</desc>
    <defs>
        <linearGradient x1="50%" y1="99.7086568%" x2="50%" y2="0.776685286%" id="linearGradient-1">
            <stop stop-color="#E09B3D" offset="0%"></stop>
            <stop stop-color="#C74C4D" offset="30%"></stop>
            <stop stop-color="#C21975" offset="60%"></stop>
            <stop stop-color="#7024C4" offset="100%"></stop>
        </linearGradient>
        <linearGradient x1="50%" y1="146.098382%" x2="50%" y2="-45.1597534%" id="linearGradient-2">
            <stop stop-color="#E09B3D" offset="0%"></stop>
            <stop stop-color="#C74C4D" offset="30%"></stop>
            <stop stop-color="#C21975" offset="60%"></stop>
            <stop stop-color="#7024C4" offset="100%"></stop>
        </linearGradient>
        <linearGradient x1="50%" y1="658.153387%" x2="50%" y2="-140.038068%" id="linearGradient-3">
            <stop stop-color="#E09B3D" offset="0%"></stop>
            <stop stop-color="#C74C4D" offset="30%"></stop>
            <stop stop-color="#C21975" offset="60%"></stop>
            <stop stop-color="#7024C4" offset="100%"></stop>
        </linearGradient>
    </defs>
    <g id="Page-1" stroke="none" stroke-width="1" fill="none" fill-rule="evenodd">
        <g id="Desktop-HD" transform="translate(-134.000000, -512.000000)" fill-rule="nonzero">
            <g id="fb-ig" transform="translate(134.000000, 512.000000)">
                <g id="facebook-(1)" fill="#475993">
                    <g id="Layer_1">
                        <path d="M86.4794621,0 L13.4687042,0 C6.03056235,0 0.000488997555,6.02982885 0.000488997555,13.4682152 L0.000488997555,86.4794621 C0.000488997555,93.9178484 6.03031785,99.9476773 13.4687042,99.9476773 L49.4772616,99.9476773 L49.5386308,64.2317848 L40.2596577,64.2317848 C39.0537897,64.2317848 38.0750611,63.2567237 38.0704156,62.0508557 L38.0259169,50.5381418 C38.0212714,49.3256724 39.002934,48.3403423 40.2154034,48.3403423 L49.4775061,48.3403423 L49.4775061,37.2161369 C49.4775061,24.3066015 57.3618582,17.2772616 68.8779951,17.2772616 L78.3278729,17.2772616 C79.5369193,17.2772616 80.5173594,18.2574572 80.5173594,19.4667482 L80.5173594,29.1743276 C80.5173594,30.3831296 79.5376528,31.3630807 78.3290954,31.3638142 L72.5298289,31.3665037 C66.2669927,31.3665037 65.0542787,34.3425428 65.0542787,38.7100244 L65.0542787,48.3405868 L78.8158924,48.3405868 C80.1271394,48.3405868 81.1444988,49.4855746 80.9899756,50.7877751 L79.6254279,62.300489 C79.4948655,63.4022005 78.5606357,64.2322738 77.4513447,64.2322738 L65.1156479,64.2322738 L65.0542787,99.9481663 L86.4799511,99.9481663 C93.9180929,99.9481663 99.9479218,93.9183374 99.9479218,86.4801956 L99.9479218,13.4682152 C99.9476773,6.02982885 93.9178484,0 86.4794621,0 Z" id="Shape"></path>
                    </g>
                </g>
                <g id="instagram-(1)" transform="translate(139.000000, 0.000000)">
                    <g id="Layer_1">
                        <g id="XMLID_13_">
                            <path d="M70.0865942,0 L29.7384058,0 C13.3405797,0 0,13.3405797 0,29.7384058 L0,70.0865942 C0,86.4844203 13.3405797,99.825 29.7384058,99.825 L70.0865942,99.825 C86.4844203,99.825 99.825,86.4844203 99.825,70.0865942 L99.825,29.7384058 C99.8248188,13.3405797 86.4842391,0 70.0865942,0 Z M89.7826087,70.0865942 C89.7826087,80.9643116 80.9643116,89.7826087 70.0865942,89.7826087 L29.7384058,89.7826087 C18.8606884,89.7826087 10.0423913,80.9643116 10.0423913,70.0865942 L10.0423913,29.7384058 C10.0423913,18.8605072 18.8606884,10.0423913 29.7384058,10.0423913 L70.0865942,10.0423913 C80.9643116,10.0423913 89.7826087,18.8605072 89.7826087,29.7384058 L89.7826087,70.0865942 L89.7826087,70.0865942 Z" id="XMLID_17_" fill="url(#linearGradient-1)"></path>
                            <path d="M49.9125,24.0942029 C35.6762681,24.0942029 24.0942029,35.6762681 24.0942029,49.9123188 C24.0942029,64.1483696 35.6762681,75.7306159 49.9125,75.7306159 C64.1487319,75.7306159 75.7307971,64.1485507 75.7307971,49.9123188 C75.7307971,35.676087 64.1487319,24.0942029 49.9125,24.0942029 Z M49.9125,65.6884058 C41.1996377,65.6884058 34.1365942,58.6253623 34.1365942,49.9125 C34.1365942,41.1996377 41.1998188,34.1365942 49.9125,34.1365942 C58.6253623,34.1365942 65.6884058,41.1996377 65.6884058,49.9125 C65.6884058,58.6251812 58.6251812,65.6884058 49.9125,65.6884058 Z" id="XMLID_81_" fill="url(#linearGradient-2)"></path>
                            <circle id="XMLID_83_" fill="url(#linearGradient-3)" cx="75.7800725" cy="24.2884058" r="6.18641304"></circle>
                        </g>
                    </g>
                </g>
            </g>
        </g>
    </g>
</svg>